HIERARCHY
ROOT SpineBase
{
  OFFSET 0.000000 0.000000 0.000000
  CHANNELS 6 Xposition Yposition Zposition Zrotation Xrotation Yrotation
  JOINT SpineMid
  {
    OFFSET 0.000000 30.757121 0.000000
    CHANNELS 3 Zrotation Xrotation Yrotation
    JOINT SpineShoulder
    {
      OFFSET -0.244706 22.785331 -0.778073
      CHANNELS 3 Zrotation Xrotation Yrotation
      JOINT Neck
      {
        OFFSET -0.161726 7.519900 -0.580785
        CHANNELS 3 Zrotation Xrotation Yrotation
        JOINT Head
        {
          OFFSET 7.460923 12.518988 3.699922
          CHANNELS 3 Zrotation Xrotation Yrotation
          End Site
          {
            OFFSET 0 0 0
          }
        }
      }
      JOINT ShoulderLeft
      {
        OFFSET -5.400582 -7.133428 -16.519115
        CHANNELS 3 Zrotation Xrotation Yrotation
        JOINT ElbowLeft
        {
          OFFSET -0.480078 -27.267054 -7.666825
          CHANNELS 3 Zrotation Xrotation Yrotation
          JOINT WristLeft
          {
            OFFSET 5.550566 -25.517761 -1.422251
            CHANNELS 3 Zrotation Xrotation Yrotation
            JOINT HandLeft
            {
              OFFSET 0.653965 -8.886469 -0.484241
              CHANNELS 3 Zrotation Xrotation Yrotation
              JOINT HandTipLeft
              {
                OFFSET 1.879105 -6.704952 1.593311
                CHANNELS 3 Zrotation Xrotation Yrotation
                End Site
                {
                  OFFSET 0 0 0
                }
              }
              JOINT ThumbLeft
              {
                OFFSET 0.426324 2.562370 1.217725
                CHANNELS 3 Zrotation Xrotation Yrotation
                End Site
                {
                  OFFSET 0 0 0
                }
              }
            }
          }
        }
      }
      JOINT ShoulderRight
      {
        OFFSET 17.373774 -6.080584 5.877666
        CHANNELS 3 Zrotation Xrotation Yrotation
        JOINT ElbowRight
        {
          OFFSET -18.413942 -6.877203 -21.781624
          CHANNELS 3 Zrotation Xrotation Yrotation
          JOINT WristRight
          {
            OFFSET -5.928406 -27.106830 -3.558683
            CHANNELS 3 Zrotation Xrotation Yrotation
            JOINT HandRight
            {
              OFFSET 3.409657 -3.982363 -3.583495
              CHANNELS 3 Zrotation Xrotation Yrotation
              JOINT HandTipRight
              {
                OFFSET 0.349139 -7.477869 -4.798331
                CHANNELS 3 Zrotation Xrotation Yrotation
                End Site
                {
                  OFFSET 0 0 0
                }
              }
              JOINT ThumbRight
              {
                OFFSET 6.879346 0.304317 6.262309
                CHANNELS 3 Zrotation Xrotation Yrotation
                End Site
                {
                  OFFSET 0 0 0
                }
              }
            }
          }
        }
      }
    }
  }
  JOINT HipLeft
  {
    OFFSET -4.463513 -0.220306 -8.098926
    CHANNELS 3 Zrotation Xrotation Yrotation
    JOINT KneeLeft
    {
      OFFSET 0.356915 -41.057526 2.760354
      CHANNELS 3 Zrotation Xrotation Yrotation
      JOINT AnkleLeft
      {
        OFFSET -5.168215 -33.251812 7.206550
        CHANNELS 3 Zrotation Xrotation Yrotation
        JOINT FootLeft
        {
          OFFSET 7.253675 -4.204738 -10.425521
          CHANNELS 3 Zrotation Xrotation Yrotation
          End Site
          {
            OFFSET 0 0 0
          }
        }
      }
    }
  }
  JOINT HipRight
  {
    OFFSET 2.989813 1.536177 0.731441
    CHANNELS 3 Zrotation Xrotation Yrotation
    JOINT KneeRight
    {
      OFFSET 4.204437 -39.957380 -6.307472
      CHANNELS 3 Zrotation Xrotation Yrotation
      JOINT AnkleRight
      {
        OFFSET -11.910039 -38.102365 6.404885
        CHANNELS 3 Zrotation Xrotation Yrotation
        JOINT FootRight
        {
          OFFSET 7.209929 -4.187134 -10.410514
          CHANNELS 3 Zrotation Xrotation Yrotation
          End Site
          {
            OFFSET 0 0 0
          }
        }
      }
    }
  }
}
MOTION
Frames: 16
Frame Time: 0.033333
70.368567 88.775629 345.244576 -0.000000 0.000000 -49.833755 0.000000 0.000000 49.833755 -0.000000 0.000000 0.000000 -0.000000 0.000000 0.000000 0.000000 0.000000 0.000000 -0.000000 0.000000 0.000000 -0.000000 0.000000 0.000000 -0.000000 0.000000 0.000000 -0.000000 0.000000 0.000000 0.000000 0.000000 0.000000 0.000000 0.000000 0.000000 -0.000000 0.000000 0.000000 -0.000000 0.000000 0.000000 -0.000000 0.000000 0.000000 -0.000000 0.000000 0.000000 0.000000 0.000000 0.000000 0.000000 0.000000 0.000000 0.000000 0.000000 49.833755 -0.000000 0.000000 0.000000 -0.000000 0.000000 0.000000 0.000000 0.000000 0.000000 0.000000 0.000000 49.833755 -0.000000 0.000000 0.000000 -0.000000 0.000000 0.000000 0.000000 0.000000 0.000000
70.465872 88.826718 345.576379 0.156970 -0.065802 -49.289222 -0.152261 -0.076066 49.289212 -0.000000 0.000000 0.000000 0.271958 0.660220 -0.475278 0.000000 0.000000 0.000000 -0.000000 0.000000 0.000000 -0.000000 0.000000 0.000000 1.325992 -4.966115 -0.381021 -1.807810 9.001806 1.600872 0.000000 0.000000 0.000000 0.000000 0.000000 0.000000 -0.000000 0.000000 0.000000 -0.000000 0.000000 0.000000 0.240791 -1.491440 -1.505405 0.248696 -0.677387 1.099365 0.000000 0.000000 0.000000 0.000000 0.000000 0.000000 -0.152261 -0.076066 49.289212 -0.000000 0.000000 0.000000 -0.000000 0.000000 0.000000 0.000000 0.000000 0.000000 -0.605548 -0.739151 49.402742 0.798447 0.087292 -0.117364 -0.000000 0.000000 0.000000 0.000000 0.000000 0.000000
70.557256 88.862499 345.901504 0.305659 -0.123510 -48.628743 -0.294708 -0.147747 48.628692 -0.000000 0.000000 0.000000 0.524090 1.182211 -0.864590 0.000000 0.000000 0.000000 -0.000000 0.000000 0.000000 -0.056185 -0.859315 -0.184306 2.500820 -8.736738 -0.490106 -3.091683 16.892340 3.180063 0.000000 0.000000 0.000000 0.000000 0.000000 0.000000 -0.000000 0.000000 0.000000 -0.000000 0.000000 0.000000 0.355776 -3.157958 -3.082366 0.751406 -1.083823 2.190114 0.000000 0.000000 0.000000 0.000000 0.000000 0.000000 -0.294708 -0.147747 48.628692 -0.000000 0.000000 0.000000 -0.000000 0.000000 0.000000 0.000000 0.000000 0.000000 -1.135167 -1.305386 48.829012 0.950272 -0.562428 -0.077228 0.473484 0.692357 -0.140012 0.000000 0.000000 0.000000
70.642719 88.882974 346.219952 0.446066 -0.173123 -47.843433 -0.427720 -0.214482 47.843307 -0.000000 0.000000 0.000000 0.754787 1.569698 -1.168781 0.000000 0.000000 0.000000 -0.000000 0.000000 0.000000 0.048659 -1.358606 -0.297839 3.297726 -12.515300 -0.582982 -3.793827 23.683591 4.564325 0.000000 0.000000 0.000000 0.000000 0.000000 0.000000 -0.000000 0.000000 0.000000 -0.000000 0.000000 0.000000 0.327735 -4.993732 -4.730347 1.502801 -1.188764 3.247709 0.000000 0.000000 0.000000 0.000000 0.000000 0.000000 -0.427720 -0.214482 47.843307 -0.348330 0.813749 -0.199712 0.351199 -0.812515 0.204676 0.000000 0.000000 0.000000 -1.602487 -1.720052 48.109943 1.378243 -0.771043 -0.097286 0.525370 0.902359 -0.198436 0.000000 0.000000 0.000000
70.722262 88.888141 346.531723 0.578194 -0.214643 -46.921522 -0.551685 -0.275725 46.921278 -0.000000 0.000000 0.000000 0.962987 1.825639 -1.388420 0.000000 0.000000 0.000000 -0.007502 -0.910065 0.018113 0.251057 -0.992323 -0.445674 3.799984 -15.895950 -0.611101 -3.827953 29.429063 5.591823 0.000000 0.000000 0.000000 0.000000 0.000000 0.000000 -0.000000 0.000000 0.000000 -0.000000 0.000000 0.000000 0.139836 -6.987693 -6.448606 2.491559 -0.967251 4.239978 0.000000 0.000000 0.000000 0.000000 0.000000 0.000000 -1.269094 0.431212 46.932783 -0.456196 0.082433 -0.277079 0.434917 -1.087178 0.266974 0.000000 0.000000 0.000000 -2.015944 -1.996090 47.238072 1.810763 -0.916184 -0.109330 0.444402 1.009535 -0.245442 0.000000 0.000000 0.000000
70.795884 88.878002 346.836816 0.702044 -0.248070 -45.847926 -0.667008 -0.330918 45.847520 -0.000000 0.000000 0.000000 1.148118 1.952156 -1.523766 0.000000 0.000000 0.000000 -0.001371 -1.162299 0.020896 0.530360 -1.326104 -0.591117 4.012484 -18.896987 -0.596038 -3.096290 34.195285 6.112995 0.000000 0.000000 0.000000 0.000000 0.000000 0.000000 -0.000000 0.000000 0.000000 -0.000000 0.000000 0.000000 -0.223570 -9.122971 -8.236058 3.701108 -0.402197 5.127864 0.000000 0.000000 0.000000 0.000000 0.000000 0.000000 -1.585924 0.591962 45.862427 -0.516230 0.064612 -0.338551 0.501946 -1.363816 0.326123 0.000000 0.000000 0.000000 -2.379664 -2.139646 46.201311 2.257610 -0.994870 -0.115438 0.230943 1.010380 -0.279638 0.000000 0.000000 0.000000
70.891580 88.864377 347.211919 0.852069 -0.303444 -44.459776 -0.820692 -0.380221 44.459310 -0.000000 0.000000 0.000000 1.356702 1.845796 -1.526386 0.000000 0.000000 0.000000 0.008850 -1.392773 0.022218 0.910657 -1.987912 -0.803953 3.995363 -21.461074 -0.512594 0.274438 37.771230 5.273763 0.000000 0.000000 0.000000 0.000000 0.000000 0.000000 -0.000000 0.000000 0.000000 -0.000000 0.000000 0.000000 -0.540052 -11.435042 -10.339001 4.220147 0.500868 6.683425 0.000000 0.000000 0.000000 0.000000 0.000000 0.000000 -1.998234 0.802158 44.477339 -0.538575 0.063912 -0.410916 0.562914 -1.728574 0.398179 0.000000 0.000000 0.000000 -3.088305 -2.152579 44.895593 3.289373 -1.252874 -0.115444 -0.434530 0.906029 -0.352870 0.000000 0.000000 0.000000
70.965030 88.811630 347.537160 0.974617 -0.313362 -43.079746 -0.925896 -0.436804 43.078882 -0.000000 0.000000 0.000000 1.423753 1.713894 -1.467906 0.000000 0.000000 0.000000 0.005215 -1.695473 0.028583 1.436047 -2.478413 -1.006470 3.095286 -24.555224 -0.520770 2.846976 42.117313 4.462397 0.000000 0.000000 0.000000 0.000000 0.000000 0.000000 -0.000000 0.000000 0.000000 -0.000000 0.000000 0.000000 -1.944063 -14.444115 -12.492289 7.006623 2.463253 6.647233 0.000000 0.000000 0.000000 0.000000 0.000000 0.000000 -2.302054 0.974671 43.099732 -0.526212 0.084142 -0.466802 0.583563 -2.050312 0.454220 0.000000 0.000000 0.000000 -3.134132 -2.216341 43.497109 3.567395 -0.853845 -0.137762 -0.742774 0.621932 -0.314882 0.000000 0.000000 0.000000
70.994316 88.750901 347.758850 1.048529 -0.281067 -41.416216 -0.972255 -0.482851 41.414691 -0.000000 0.000000 0.000000 1.565454 1.480000 -1.370858 0.000000 0.000000 0.000000 0.021786 -2.016919 0.029921 1.990464 -2.791547 -1.172487 2.457250 -26.437048 -0.461463 5.472433 44.370036 3.197009 0.000000 0.000000 0.000000 0.000000 0.000000 0.000000 -0.000000 0.000000 0.000000 -0.000000 0.000000 0.000000 -2.739165 -16.866757 -14.677499 8.988035 4.131046 6.751375 0.000000 0.000000 0.000000 0.000000 0.000000 0.000000 -2.533078 1.214132 41.441500 -0.503494 -0.005305 -0.505723 0.570980 -2.294830 0.490158 0.000000 0.000000 0.000000 -2.773328 -2.104589 41.754716 2.423207 0.009711 -0.380902 -0.000000 0.000000 0.000000 0.000000 0.000000 0.000000
70.985476 88.703230 347.922729 1.061721 -0.239330 -40.025073 -0.274263 -0.064827 40.052935 -0.809956 0.112959 -0.025650 1.743965 1.404430 -1.381334 0.000000 0.000000 0.000000 0.052767 -2.323285 0.027300 2.524549 -2.829352 -1.275936 2.081048 -27.358180 -0.363383 7.996125 44.544834 1.737247 0.000000 0.000000 0.000000 0.000000 0.000000 0.000000 -0.000000 0.000000 0.000000 -0.000000 0.000000 0.000000 -3.973109 -18.510798 -15.754880 8.724600 8.461459 7.625755 0.000000 0.000000 0.000000 0.000000 0.000000 0.000000 -2.601216 1.429717 40.057644 -0.527199 -0.038498 -0.538736 0.560252 -2.484655 0.517771 0.000000 0.000000 0.000000 -1.964311 -1.987399 40.221060 1.722257 0.491737 -0.227023 -0.000000 0.000000 0.000000 0.000000 0.000000 0.000000
70.975227 88.673094 348.143691 1.092106 -0.269992 -39.026244 -0.308508 -0.028760 39.055144 -0.834282 0.098471 -0.026718 1.619888 1.734770 -1.543259 0.000000 0.000000 0.000000 0.071019 -2.603051 0.027660 3.148403 -3.084351 -1.423768 1.705373 -27.813315 -0.197270 10.877110 43.545640 -0.023745 0.000000 0.000000 0.000000 0.000000 0.000000 0.000000 -0.000000 0.000000 0.000000 -0.000000 0.000000 0.000000 -4.832811 -19.914042 -16.902677 13.043087 5.942023 5.124569 0.000000 0.000000 0.000000 0.000000 0.000000 0.000000 -2.701758 1.663648 39.068473 -0.563381 -0.099938 -0.563609 0.546824 -2.618332 0.535778 0.000000 0.000000 0.000000 -1.095894 -1.842964 39.061808 0.984295 2.019167 -0.353676 -0.057631 -1.008503 0.304552 0.000000 0.000000 0.000000
70.940891 88.669367 348.317785 1.103123 -0.325213 -38.787629 -0.348484 0.010622 38.816922 -0.838096 0.099031 -0.026835 1.441032 1.929963 -1.604425 0.000000 0.000000 0.000000 0.076973 -2.868960 0.031026 3.731606 -3.184893 -1.540489 1.470134 -27.390941 -0.016646 10.959990 42.194084 -0.261964 0.000000 0.000000 0.000000 0.000000 0.000000 0.000000 -0.000000 0.000000 0.000000 -0.000000 0.000000 0.000000 -3.931768 -20.458159 -18.248479 18.591668 0.821184 1.437115 0.000000 0.000000 0.000000 0.000000 0.000000 0.000000 -2.718525 1.825505 38.839761 -0.668877 -0.124867 -0.585411 0.566402 -2.669970 0.548660 0.000000 0.000000 0.000000 -0.373457 -1.549748 38.686837 -0.156360 2.595694 -0.337300 0.320443 -1.294322 0.461606 0.000000 0.000000 0.000000
70.905141 88.675754 348.461665 1.116378 -0.404811 -39.025322 -0.388055 0.043374 39.055068 -0.842161 0.127170 -0.026461 1.298347 1.982188 -1.590144 0.000000 0.000000 0.000000 0.082088 -3.022776 0.032560 4.235351 -3.245773 -1.617170 1.530646 -26.625528 0.167885 11.912008 41.565663 -0.635242 0.000000 0.000000 0.000000 0.000000 0.000000 0.000000 -0.000000 0.000000 0.000000 -0.000000 0.000000 0.000000 -2.825672 -20.957603 -19.653576 21.268882 -1.518134 0.079768 0.000000 0.000000 0.000000 0.000000 0.000000 0.000000 -2.690852 1.870182 39.083368 -0.744841 0.001679 -0.601644 0.567725 -2.737990 0.559775 0.000000 0.000000 0.000000 0.709615 -1.550575 38.730328 -1.854375 3.275889 -0.183898 1.155182 -1.219375 0.588445 0.000000 0.000000 0.000000
70.888750 88.690764 348.620223 1.156343 -0.521236 -39.148895 -0.419284 0.061129 39.179984 -0.869678 0.209532 -0.025861 1.089852 1.929657 -1.491534 0.000000 0.000000 0.000000 0.118735 -3.105908 0.024720 4.618415 -3.369245 -1.671893 1.274806 -25.700179 0.286242 12.316820 40.199953 -0.762661 0.000000 0.000000 0.000000 0.000000 0.000000 0.000000 -0.000000 0.000000 0.000000 -0.000000 0.000000 0.000000 -1.633780 -21.261348 -20.834792 20.925790 -1.370698 0.947168 0.000000 0.000000 0.000000 0.000000 0.000000 0.000000 -2.798245 1.961867 39.212404 -0.780977 0.045124 -0.617981 0.583767 -2.805517 0.574355 0.000000 0.000000 0.000000 0.177876 -1.727433 38.935523 -0.851509 2.611249 -0.037916 0.640129 -0.638529 0.311016 0.000000 0.000000 0.000000
70.887717 88.688259 348.759588 1.221429 -0.624884 -38.850670 -0.443406 0.071854 38.884013 -0.091814 0.086349 0.030916 0.064658 2.015974 -1.418675 0.000000 0.000000 0.000000 -0.671721 -2.871207 -0.045350 4.903063 -3.550852 -1.698795 0.802249 -24.784273 0.349164 13.928740 37.919108 -1.400682 0.000000 0.000000 0.000000 0.000000 0.000000 0.000000 -0.829109 0.205335 -0.058151 -0.000000 0.000000 0.000000 -0.123959 -21.799733 -22.479751 20.631911 -4.064683 3.043720 0.000000 0.000000 0.000000 0.000000 0.000000 0.000000 -2.938117 2.078953 38.919853 -0.826649 0.037416 -0.638100 0.618295 -2.867589 0.592548 0.000000 0.000000 0.000000 -0.131253 -1.689193 38.669527 -0.065760 1.857653 0.206416 -0.000000 0.000000 0.000000 0.000000 0.000000 0.000000
70.921979 88.659855 348.912376 1.304845 -0.688769 -38.895360 -0.438211 0.071926 38.932093 -0.072386 0.093211 0.035477 -0.215086 1.668050 -1.125731 0.000000 0.000000 0.000000 -0.731174 -2.707440 -0.066335 5.074872 -3.716500 -1.694267 0.434530 -23.504309 0.397402 15.303164 36.096138 -1.682057 0.000000 0.000000 0.000000 0.000000 0.000000 0.000000 -0.936196 0.265549 -0.064449 -0.000000 0.000000 0.000000 0.758855 -22.339485 -23.697513 17.152413 -1.536873 6.366455 0.000000 0.000000 0.000000 0.000000 0.000000 0.000000 -3.087155 2.071105 38.963825 -0.831792 0.110230 -0.659839 0.660546 -2.964103 0.618134 0.000000 0.000000 0.000000 -0.712133 -1.580471 38.794701 0.239126 1.471981 0.113820 -0.000000 0.000000 0.000000 0.000000 0.000000 0.000000
